# xmcd
# 
# Track frame offsets:
#     150
#     18182
#     36752
#     56320
#     73992
#     92127
#     108150
#     124592
#     143647
#     158837
#     178805
#     192810
#     212117
#     230572
#     244450
# 
# Disc length: 3500
# 
# Revision: 3
# Processed by: cddbd v1.5.2PL0 Copyright (c) Steve Scherf et al.
# Submitted via: BonkEnc v1.0
# 
DISCID=cf0daa0f
DTITLE=Soweto - Farol das Estrelas
DYEAR=1999
DGENRE=Pagode
TTITLE0=Farol das Estrelas
TTITLE1=Não Foi à Toa
TTITLE2=Tudo Fica Blue
TTITLE3=Entre a Cruz e a Espada
TTITLE4=Tempo de Aprender
TTITLE5=Búzios e Tarô
TTITLE6=Gosto do Desejo
TTITLE7=Dom do Amor
TTITLE8=Briga de Paixão
TTITLE9=Impossível te Esquecer
TTITLE10=É Tudo
TTITLE11=Preciso te Amar
TTITLE12=Canção Feliz (faço tudo outra vez)
TTITLE13=Nossa Canção
TTITLE14=Restou Saudade
EXTD=
EXTT0=
EXTT1=
EXTT2=
EXTT3=
EXTT4=
EXTT5=
EXTT6=
EXTT7=
EXTT8=
EXTT9=
EXTT10=
EXTT11=
EXTT12=
EXTT13=
EXTT14=
PLAYORDER=
